# xmcd
# 
# Track frame offsets:
#     150
#     21641
#     39556
#     59895
#     74609
#     93245
#     107992
#     126411
#     139754
#     159247
#     173695
#     193397
#     211259
#     228440
#     245315
# 
# Disc length: 3482
# 
# Revision: 0
# Processed by: cddbd v1.5.2PL0 Copyright (c) Steve Scherf et al.
# Submitted via: fre:ac v1.0.17
# 
DISCID=e30d980f
DTITLE=Mladen Grdović - Hitovi 1
DYEAR=1995
DGENRE=Country
TTITLE0=Ja ću doći s pismom
TTITLE1=Ispod starih borova
TTITLE2=Di ste prijatelji moji
TTITLE3=Bolje živim nego ministar
TTITLE4=Dva dijamanta
TTITLE5=Vitar nek puče
TTITLE6=Ćaćine riči
TTITLE7=Tu je moj dom
TTITLE8=Dalmatinac
TTITLE9=Grdelina dva
TTITLE10=Gdje je moja ljubav star
TTITLE11=Sve za ljubav
TTITLE12=Tiho, tiho
TTITLE13=Mama Marija
TTITLE14=Neznam naziv
EXTD=Ok
EXTT0=
EXTT1=
EXTT2=
EXTT3=
EXTT4=
EXTT5=
EXTT6=
EXTT7=
EXTT8=
EXTT9=
EXTT10=
EXTT11=
EXTT12=
EXTT13=Ok
EXTT14=
PLAYORDER=
